<?xml version="1.0" encoding="utf-8"?>
<!-- Generator: Adobe Adobe Illustrator 24.2.0, SVG Export Plug-In . SVG Version: 6.00 Build 0)  -->
<svg version="1.1" id="Layer_7" xmlns="http://www.w3.org/2000/svg" xmlns:xlink="http://www.w3.org/1999/xlink" x="0px" y="0px"
	 width="841.89px" height="595.28px" viewBox="0 0 841.89 595.28" style="enable-background:new 0 0 841.89 595.28;"
	 xml:space="preserve">
<g fill="#EFECE3">
	<path d="M638.35,200.17c0.1,0.25,0.13,0.53,0.1,0.79c-0.91,6.9-7.02,8.61-11.45,11.35c-83.29,49.21-163.64,103.22-245.24,155.13
		c-11.24,7.73-22.86,14.88-33.9,22.88c-40.84,31.93,28.45,66.87,53.53,83.9c1.4,0.95,0.44,3.14-1.2,2.74
		c-0.01,0-0.03-0.01-0.04-0.01c-36.68-7.78-71.37-23.35-99.61-48.39c-4.91-4.34-7.25-4.72-12.92-1.34
		c-11.72,7-23.65,13.71-34.9,21.41c-24.86,16.61-50.82,31.4-75.33,48.45c-0.04,0.02-0.07,0.04-0.1,0.06
		c-1.95,1.06-4.66,3.73-6.43,1.21c-0.92-1.63,0.74-2.36,1.81-3.19c67.74-50.24,138.24-96.7,205.76-147.23
		c21.64-17.31,34.43-42.91,35-70.66c-0.01-42.91,0.03-85.82,0.07-128.74c0-0.03,0-0.06,0-0.1c0.99-10.7-7.38-25.78-19.83-18.46
		c-20.18,9.96-40,20.56-57.55,34.82c-68.67,50.95-96.93,148.27-37.56,217.58c3.98,5.11,3.98,5.68-1.17,9.31
		c-0.01,0.01-0.03,0.02-0.05,0.03c-5.39,3.87-17.88,16.96-22.67,9.93c-27.22-34-43.82-78.35-39.72-122.1
		c6.05-57.08,43.46-107.12,91.16-137.32c51.34-31.01,86.92-40.69,112.83-96.58c0.67-1.45,2.85-1.02,2.92,0.58
		c3.17,71.15-0.75,144.7,1.74,216.52c0,0.01,0,0.01,0,0.02c3.63,55.95,74.8,2.11,159.04-50.76c0.06-0.04,0.1-0.09,0.17-0.13
		C615.03,205.6,632.34,185.36,638.35,200.17z"/>
	<path d="M553.05,383.37c18.66-24.36,29.5-50.73,39.08-79.93c0.06-0.19,0.35-0.17,0.37,0.04c5.02,50.2-30.56,114.58-70.61,144.71
		c-39.02,27.5-72.41,33.16-93.29,82.26c0,0.01-0.01,0.02-0.01,0.03c-1.72,3.6-2.75,9.51-6.91,10.88c-0.12,0.04-0.25-0.05-0.25-0.17
		c-3.07-51.88-1.42-105.86-0.74-158.34c0-0.01,0-0.01,0-0.02c1.55-26.09,52.33-48.49,54.99-49.43c2.76-0.98,1.66,0.54,0.73,1.57
		c-1.17,1.28-2.06,2.48-3.2,3.51c-13.89,11.88-22.1,29.39-21.7,47.73c-0.21,13.38-0.03,26.76-0.06,40.15c0,0.01,0,0.02,0,0.02
		c6.07,53.79,89.21-23.08,101.59-42.97C553.04,383.37,553.04,383.37,553.05,383.37z"/>
</g>
</svg>
