<?xml version="1.0" encoding="utf-8"?>
<!-- Generator: Adobe Adobe Illustrator 24.2.0, SVG Export Plug-In . SVG Version: 6.00 Build 0)  -->
<svg version="1.1" id="Layer_4" xmlns="http://www.w3.org/2000/svg" xmlns:xlink="http://www.w3.org/1999/xlink" x="0px" y="0px"
	 width="1728px" height="1296px" viewBox="0 0 1728 1296" style="enable-background:new 0 0 1728 1296;" xml:space="preserve">
<style type="text/css">
		.st0{fill:#EFECE3;}
</style>
<g>
	<g>
		<path class="st0" d="M1403.94,685.11c-7.93-8.52-39.17-42.51-54.93-66.62c-12.42-18.99-37.76-63.39-37.76-63.39
			c-0.34-0.48,0.04-1.14,0.63-1.09l56.91,5.32l-69.33-98.61c-2.15-3.03-7.25-4.23-6.02-7.22c6.2-15.13,40.15-102.92,39.2-196.51
			c-1.47-145.76-29.62-217.95-35.68-231.53c-0.54-1.2-2.08-1.54-3.08-0.68c-12.06,10.46-77.48,67.31-138.53,122.6
			c-90.85,82.28-125.96,156.05-162.01,161.67c-2.41,0.38,17.56-22.25,17.56-22.25c0.8-1.02,0.32-2.53-0.93-2.88
			c-19.51-5.48-141.51-39.7-145.75-39.61c-4.29,0.09-127.82,36.76-144.61,39.05c-0.86,0.12-1.23,0.85-0.83,1.63
			c5.08,9.82,16.33,19.99,16.69,23.33c0.35,3.2-19.14-6.66-25.02-11.61c-25.19-21.24-77.94-95.27-133.51-146.93
			C514.16,91.41,432.39,24.23,432.39,24.23s-38.64,98.02-37.58,211.36c1.32,141.09,44.55,226.61,44.55,226.61l-25.48,20.01
			l-54.34,77.42l56.66-4.52c0.44-0.04,0.76,0.43,0.55,0.82c-2.99,5.74-19.85,37.69-37.89,64.06
			c-17.22,25.18-55.14,66.26-55.14,66.26c-0.28,0.39-0.1,0.94,0.37,1.08c5.4,1.6,32.53,9.69,41.96,13.08
			c7.97,2.86,31.57,12.31,31.57,12.31c0.62,0.22,0.54,1.12-0.11,1.23l-39.29,6.45c-0.35,0.06-0.48,0.51-0.19,0.73
			c6.58,5.23,55.95,44.44,73.59,57.4c25.1,18.44,57.51,54.06,57.51,54.06c0.29,0.25,0.06,0.71-0.31,0.64l-66.62-14.1
			c-0.48-0.1-0.76,0.52-0.37,0.82c9.84,7.43,62.58,47.42,112.99,88.46c50.34,40.99,88.71,82.74,88.89,82.66
			c0.35-0.15-6.36-59.71-7.62-70.82c-0.05-0.42,0.51-0.6,0.72-0.24c4.11,7,20.96,36.98,30.51,72.84
			c5.37,20.15,15.11,82.04,15.11,82.04s3.72,40.44,7.35,57.11c5.25,24.09,23.36,38.88,23.36,38.88l0.01-27.81
			c0.01-0.21,0.26-0.32,0.41-0.18c1.91,1.79,10.47,9.8,18.31,17.13c7.91,7.39,15.54,14.43,16.19,16.8
			c5.14,18.78,6.15,25.18,16.71,48.03c10.62,22.99,26.15,39.46,30.89,45.96c0.34,0.46,1.06,0.26,1.11-0.31
			c0.48-6.2,2.24-28.08,3.44-36.09c1.12-7.44,6.39-30.9,6.39-30.9c0.09-0.62,0.79-0.94,1.31-0.6c0,0,14.88,9.88,20.02,13.17
			c5.57,3.57,22.86,14.26,22.86,14.26c1.16,0.73,2.64,0.66,3.73-0.17l28.18-21.43c0.8-0.59,1.89-0.59,2.69,0.01l28.56,21.46
			c1.01,0.75,2.36,0.83,3.46,0.21c5.17-2.93,20.05-11.43,25.48-15.12c4.56-3.1,17.62-13.28,17.62-13.28c0.72-0.45,1.1,0.26,1.24,1.1
			c0.77,4.67,3.46,17.56,5.05,29.54c1.6,12.07,3.62,38.82,3.62,38.82c0.04,0.28,0.38,0.39,0.57,0.19
			c3.24-3.32,22.21-23.36,33.22-48.13c13.55-30.48,14.34-41.86,16.41-48.22c0.48-1.47,7.35-6.25,14.41-12.53
			c9.5-8.45,19.81-18.72,19.81-18.72v26.9c0,0,19.9-7.84,25.41-47.08c7.3-51.96,10.36-92.91,22-133.38
			c8.52-29.6,29.11-70.41,29.11-70.41c0.11-0.37,0.67-0.26,0.63,0.13l-7.3,70.21c-0.05,0.44,0.48,0.71,0.8,0.4
			c8.64-8.36,74.61-72.08,99.96-93.47c23.23-19.6,100.97-77.76,100.97-77.76c0.52-0.44,0.1-1.28-0.57-1.12l-65.39,15.26
			c-0.66,0.16-1.12-0.65-0.63-1.13c8.65-8.36,47.25-45.43,70.4-63.54c15.04-11.77,60.07-47.9,60.07-47.9
			c0.64-0.54,0.35-1.58-0.48-1.72l-37.81-6.15c-0.47-0.09-0.53-0.74-0.08-0.9c6.57-2.38,31.31-11.33,39.98-14.35
			c7.79-2.71,31.34-10.04,31.34-10.04C1404.44,687.58,1404.82,686.05,1403.94,685.11z M515.96,369.23
			c-3.6,2.01,2.88,13.51,3.84,23.37c1.37,14.06-4.27,28.81-4.27,28.81c-0.02,0.38-0.73,0.44-0.99,0.1
			c-6.66-8.84-33.85-26.2-56.07-135.1c-12.34-60.47,5.42-125.94,8.16-136.46c0.12-0.47,1.07-0.53,1.39-0.09
			c0,0,47.34,46.35,85.55,97.54c25.42,34.06,39.77,60.64,48.78,88.08c0.69,2.1-17.05-4.81-42.98-23.8
			c-6.81-4.99-35.67-31.05-35.68-30.57c-0.2,13.2,0.57,20.03,13.07,53.88c4.47,12.12,27.76,44.11,25.26,44.53
			c-4.02,0.68-15.32-3.08-26-6.45C527.76,370.45,519.95,367,515.96,369.23z M740.98,834.89c0,0-31.8-45.96-38.94-48.31
			c-18.09-5.97-58.26-11.97-82.61-34.08c-48.29-43.86-39.98-66.92-48.38-91.37c-3.47-10.09-26.17-33.7-26.17-33.7
			c-0.37-0.48,0.07-1.16,0.66-1.01c12.68,3.39,89.1,25,134.77,65.42c60.99,53.97,61.39,130.06,61.87,142.65
			C742.2,835.11,741.37,835.38,740.98,834.89z M955.25,1071.32c-4.81,10.92-16.06,24.01-22.04,27.32
			c-10.62,5.89-23.96,9.28-27.82,16.42c-6.08,11.25-27.86,52.09-42.09,50.27c-17.22-2.21-30.46-32.36-41.55-51.06
			c-3.97-6.7-19.45-10.05-30.27-19.23c-8.99-7.63-18.88-19.19-19.95-27.06c-2.45-18.07-3.39-26.94,24.3-32.45
			c33.88-6.74,93.99-10.19,123.01-3.09C937.19,1036.93,971.17,1035.17,955.25,1071.32z M1183.48,627.42c0,0-22.7,23.61-26.17,33.7
			c-8.4,24.44-0.09,47.51-48.38,91.37c-24.35,22.11-64.52,28.11-82.61,34.08c-7.14,2.36-38.94,48.31-38.94,48.31
			c-0.39,0.49-1.22,0.22-1.2-0.4c0.48-12.59,0.88-88.68,61.87-142.65c45.67-40.42,122.09-62.03,134.77-65.42
			C1183.41,626.26,1183.85,626.94,1183.48,627.42z M1271.52,286.4c-22.22,108.89-49.42,126.26-56.07,135.1
			c-0.26,0.34-0.97,0.28-0.99-0.1c0,0-5.64-14.74-4.27-28.81c0.96-9.86,7.45-21.36,3.84-23.37c-3.99-2.22-11.8,1.23-20.07,3.84
			c-10.68,3.37-21.98,7.13-26,6.45c-2.49-0.42,20.79-32.41,25.26-44.53c12.5-33.84,13.27-40.68,13.07-53.88
			c-0.01-0.48-28.86,25.58-35.68,30.57c-25.94,18.99-43.67,25.91-42.98,23.8c9.01-27.45,23.36-54.02,48.78-88.08
			c38.21-51.19,85.55-97.54,85.55-97.54c0.32-0.44,1.26-0.38,1.39,0.09C1266.1,160.47,1283.87,225.94,1271.52,286.4z"/>
	</g>
</g>
</svg>
